<?xml version="1.0" encoding="UTF-8"?>
<svg xmlns="http://www.w3.org/2000/svg" xmlns:xlink="http://www.w3.org/1999/xlink" width="854" height="480" viewBox="0 0 854 480">
<defs>
<g>
<g id="glyph-0-0">
<path d="M 0.171875 0 L 0.171875 -0.269531 C 0.472656 -0.277344 0.6875 -0.320312 0.8125 -0.390625 C 1.007812 -0.5 1.109375 -0.707031 1.109375 -1.011719 L 1.109375 -6.117188 C 1.109375 -6.425781 1.007812 -6.636719 0.804688 -6.742188 C 0.6875 -6.808594 0.476562 -6.847656 0.171875 -6.867188 L 0.171875 -7.132812 L 6.253906 -7.132812 L 6.253906 -5.003906 L 5.996094 -5.003906 C 5.859375 -5.683594 5.632812 -6.152344 5.3125 -6.402344 C 4.992188 -6.652344 4.40625 -6.777344 3.554688 -6.777344 C 3.234375 -6.777344 3.027344 -6.746094 2.941406 -6.675781 C 2.851562 -6.609375 2.808594 -6.476562 2.808594 -6.277344 L 2.808594 -3.835938 C 3.410156 -3.828125 3.816406 -3.9375 4.03125 -4.160156 C 4.242188 -4.386719 4.40625 -4.796875 4.519531 -5.394531 L 4.789062 -5.394531 L 4.789062 -1.828125 L 4.519531 -1.828125 C 4.445312 -2.429688 4.289062 -2.855469 4.058594 -3.101562 C 3.828125 -3.347656 3.410156 -3.46875 2.808594 -3.46875 L 2.808594 -0.914062 C 2.808594 -0.691406 2.867188 -0.535156 2.980469 -0.457031 C 3.097656 -0.375 3.332031 -0.335938 3.691406 -0.335938 C 4.363281 -0.335938 4.914062 -0.464844 5.339844 -0.726562 C 5.765625 -0.988281 6.144531 -1.476562 6.472656 -2.195312 L 6.765625 -2.195312 L 6.339844 0 Z "/>
</g>
<g id="glyph-0-1">
<path d="M 0.144531 -0.242188 C 0.320312 -0.269531 0.46875 -0.328125 0.59375 -0.414062 C 0.71875 -0.5 0.914062 -0.699219 1.171875 -1.011719 C 1.277344 -1.140625 1.417969 -1.324219 1.59375 -1.554688 C 1.769531 -1.789062 1.914062 -1.980469 2.027344 -2.125 L 0.671875 -4.199219 C 0.5625 -4.367188 0.472656 -4.472656 0.40625 -4.515625 C 0.339844 -4.554688 0.246094 -4.585938 0.117188 -4.601562 L 0.117188 -4.859375 L 2.757812 -4.859375 L 2.757812 -4.601562 C 2.511719 -4.566406 2.371094 -4.542969 2.328125 -4.527344 C 2.289062 -4.511719 2.269531 -4.472656 2.269531 -4.40625 C 2.269531 -4.328125 2.359375 -4.152344 2.539062 -3.878906 C 2.71875 -3.605469 2.878906 -3.378906 3.015625 -3.199219 C 3.367188 -3.640625 3.582031 -3.921875 3.667969 -4.046875 C 3.753906 -4.171875 3.796875 -4.273438 3.796875 -4.355469 C 3.796875 -4.457031 3.757812 -4.523438 3.671875 -4.550781 C 3.589844 -4.578125 3.449219 -4.597656 3.257812 -4.601562 L 3.257812 -4.859375 L 5.03125 -4.859375 L 5.03125 -4.601562 C 4.898438 -4.578125 4.792969 -4.550781 4.707031 -4.515625 C 4.546875 -4.445312 4.410156 -4.339844 4.296875 -4.199219 L 3.222656 -2.871094 L 4.789062 -0.464844 C 4.828125 -0.40625 4.867188 -0.363281 4.914062 -0.332031 C 4.960938 -0.304688 5.023438 -0.273438 5.101562 -0.242188 L 5.101562 0 L 2.5625 0 L 2.5625 -0.242188 C 2.710938 -0.25 2.828125 -0.265625 2.910156 -0.292969 C 2.996094 -0.320312 3.039062 -0.378906 3.039062 -0.46875 C 3.039062 -0.527344 3.003906 -0.621094 2.933594 -0.753906 C 2.890625 -0.832031 2.824219 -0.941406 2.730469 -1.085938 C 2.679688 -1.167969 2.605469 -1.277344 2.511719 -1.414062 C 2.414062 -1.554688 2.328125 -1.683594 2.246094 -1.804688 C 2.023438 -1.519531 1.855469 -1.300781 1.746094 -1.144531 C 1.515625 -0.820312 1.402344 -0.613281 1.402344 -0.519531 C 1.402344 -0.410156 1.445312 -0.339844 1.535156 -0.304688 C 1.621094 -0.269531 1.753906 -0.25 1.925781 -0.242188 L 1.925781 0 L 0.144531 0 Z "/>
</g>
<g id="glyph-0-2">
<path d="M 2.3125 -0.601562 C 2.484375 -0.601562 2.644531 -0.65625 2.792969 -0.757812 C 2.875 -0.820312 2.972656 -0.914062 3.085938 -1.046875 L 3.085938 -2.585938 C 2.804688 -2.519531 2.558594 -2.410156 2.34375 -2.261719 C 1.984375 -2.011719 1.804688 -1.691406 1.804688 -1.304688 C 1.804688 -1.074219 1.855469 -0.898438 1.960938 -0.78125 C 2.066406 -0.664062 2.183594 -0.601562 2.3125 -0.601562 Z M 0.269531 -0.984375 C 0.269531 -1.457031 0.496094 -1.835938 0.953125 -2.113281 C 1.410156 -2.390625 2.125 -2.671875 3.101562 -2.953125 L 3.101562 -3.722656 C 3.101562 -4.035156 3.035156 -4.265625 2.90625 -4.414062 C 2.773438 -4.5625 2.539062 -4.640625 2.199219 -4.640625 C 2.011719 -4.640625 1.855469 -4.601562 1.734375 -4.53125 C 1.613281 -4.460938 1.550781 -4.375 1.550781 -4.269531 C 1.550781 -4.226562 1.558594 -4.191406 1.570312 -4.164062 C 1.585938 -4.136719 1.605469 -4.109375 1.632812 -4.078125 L 1.695312 -4.003906 C 1.742188 -3.945312 1.78125 -3.882812 1.8125 -3.8125 C 1.839844 -3.742188 1.855469 -3.667969 1.855469 -3.585938 C 1.855469 -3.386719 1.789062 -3.234375 1.65625 -3.125 C 1.523438 -3.015625 1.371094 -2.964844 1.195312 -2.964844 C 0.992188 -2.964844 0.820312 -3.023438 0.679688 -3.144531 C 0.535156 -3.265625 0.464844 -3.4375 0.464844 -3.664062 C 0.464844 -4.070312 0.65625 -4.390625 1.035156 -4.628906 C 1.417969 -4.867188 1.886719 -4.984375 2.441406 -4.984375 C 3.039062 -4.984375 3.539062 -4.867188 3.941406 -4.640625 C 4.339844 -4.40625 4.539062 -3.976562 4.539062 -3.351562 L 4.539062 -0.792969 C 4.539062 -0.71875 4.5625 -0.652344 4.601562 -0.601562 C 4.640625 -0.546875 4.683594 -0.519531 4.730469 -0.519531 C 4.773438 -0.519531 4.808594 -0.527344 4.84375 -0.542969 C 4.875 -0.558594 4.925781 -0.601562 4.996094 -0.671875 L 5.152344 -0.449219 C 4.949219 -0.207031 4.71875 -0.0390625 4.46875 0.0585938 C 4.3125 0.121094 4.144531 0.148438 3.96875 0.148438 C 3.65625 0.148438 3.425781 0.0585938 3.28125 -0.125 C 3.199219 -0.226562 3.140625 -0.378906 3.101562 -0.582031 C 2.808594 -0.289062 2.480469 -0.0859375 2.113281 0.0351562 C 1.890625 0.113281 1.671875 0.148438 1.453125 0.148438 C 1.164062 0.148438 0.894531 0.0585938 0.644531 -0.125 C 0.394531 -0.308594 0.269531 -0.597656 0.269531 -0.984375 Z "/>
</g>
<g id="glyph-0-3">
<path d="M 0.171875 -0.253906 C 0.363281 -0.277344 0.496094 -0.316406 0.566406 -0.375 C 0.683594 -0.46875 0.742188 -0.640625 0.742188 -0.890625 L 0.742188 -3.996094 C 0.742188 -4.214844 0.703125 -4.363281 0.625 -4.441406 C 0.546875 -4.519531 0.394531 -4.574219 0.171875 -4.601562 L 0.171875 -4.859375 L 2.167969 -4.859375 L 2.167969 -4.101562 C 2.34375 -4.332031 2.515625 -4.511719 2.679688 -4.640625 C 2.984375 -4.871094 3.324219 -4.984375 3.699219 -4.984375 C 4.121094 -4.984375 4.453125 -4.882812 4.683594 -4.683594 C 4.816406 -4.570312 4.9375 -4.386719 5.054688 -4.128906 L 5.128906 -4.128906 C 5.328125 -4.371094 5.519531 -4.554688 5.699219 -4.679688 C 5.988281 -4.882812 6.304688 -4.984375 6.644531 -4.984375 C 7.015625 -4.984375 7.34375 -4.867188 7.625 -4.628906 C 7.910156 -4.390625 8.050781 -4.015625 8.050781 -3.503906 L 8.050781 -0.851562 C 8.050781 -0.605469 8.089844 -0.449219 8.167969 -0.382812 C 8.246094 -0.316406 8.386719 -0.273438 8.585938 -0.253906 L 8.585938 0 L 6.082031 0 L 6.082031 -0.253906 C 6.273438 -0.28125 6.410156 -0.328125 6.484375 -0.394531 C 6.558594 -0.460938 6.597656 -0.613281 6.597656 -0.851562 L 6.597656 -3.40625 C 6.597656 -3.679688 6.558594 -3.894531 6.476562 -4.046875 C 6.394531 -4.199219 6.242188 -4.273438 6.015625 -4.273438 C 5.832031 -4.273438 5.640625 -4.1875 5.441406 -4.023438 C 5.238281 -3.855469 5.136719 -3.738281 5.136719 -3.675781 L 5.136719 -0.851562 C 5.136719 -0.621094 5.171875 -0.472656 5.242188 -0.40625 C 5.3125 -0.339844 5.4375 -0.289062 5.628906 -0.253906 L 5.628906 0 L 3.160156 0 L 3.160156 -0.253906 C 3.34375 -0.277344 3.476562 -0.320312 3.554688 -0.390625 C 3.636719 -0.457031 3.675781 -0.609375 3.675781 -0.851562 L 3.675781 -3.40625 C 3.675781 -3.675781 3.636719 -3.886719 3.5625 -4.039062 C 3.484375 -4.195312 3.328125 -4.273438 3.09375 -4.273438 C 2.875 -4.273438 2.675781 -4.183594 2.488281 -4.007812 C 2.304688 -3.832031 2.210938 -3.71875 2.210938 -3.675781 L 2.210938 -0.851562 C 2.210938 -0.621094 2.242188 -0.472656 2.308594 -0.40625 C 2.375 -0.339844 2.503906 -0.289062 2.695312 -0.253906 L 2.695312 0 L 0.171875 0 Z "/>
</g>
<g id="glyph-0-4">
<path d="M 3.085938 -0.4375 C 3.46875 -0.4375 3.726562 -0.691406 3.859375 -1.195312 C 3.933594 -1.472656 3.96875 -1.875 3.96875 -2.398438 C 3.96875 -3.003906 3.914062 -3.484375 3.804688 -3.84375 C 3.695312 -4.203125 3.46875 -4.382812 3.132812 -4.382812 C 2.90625 -4.382812 2.703125 -4.28125 2.527344 -4.082031 C 2.347656 -3.882812 2.257812 -3.738281 2.257812 -3.648438 L 2.257812 -1.082031 C 2.257812 -0.980469 2.34375 -0.847656 2.511719 -0.683594 C 2.683594 -0.519531 2.875 -0.4375 3.085938 -0.4375 Z M 0.191406 1.921875 C 0.417969 1.898438 0.570312 1.847656 0.65625 1.765625 C 0.738281 1.683594 0.777344 1.53125 0.777344 1.308594 L 0.777344 -3.996094 C 0.777344 -4.214844 0.738281 -4.363281 0.664062 -4.441406 C 0.585938 -4.519531 0.4375 -4.570312 0.214844 -4.601562 L 0.214844 -4.859375 L 2.230469 -4.859375 L 2.230469 -4.164062 C 2.375 -4.40625 2.515625 -4.582031 2.65625 -4.695312 C 2.902344 -4.894531 3.21875 -4.996094 3.601562 -4.996094 C 4.15625 -4.996094 4.617188 -4.785156 4.980469 -4.371094 C 5.347656 -3.953125 5.53125 -3.335938 5.53125 -2.511719 C 5.53125 -1.746094 5.332031 -1.109375 4.941406 -0.605469 C 4.546875 -0.101562 4.066406 0.148438 3.503906 0.148438 C 3.214844 0.148438 2.941406 0.0664062 2.683594 -0.101562 C 2.546875 -0.191406 2.40625 -0.320312 2.257812 -0.484375 L 2.257812 0.40625 C 2.261719 0.882812 2.265625 1.148438 2.269531 1.207031 C 2.292969 1.484375 2.363281 1.675781 2.480469 1.777344 C 2.601562 1.882812 2.796875 1.941406 3.078125 1.957031 L 3.078125 2.175781 L 0.191406 2.175781 Z "/>
</g>
<g id="glyph-0-5">
<path d="M 0.171875 -0.253906 C 0.355469 -0.296875 0.488281 -0.355469 0.5625 -0.429688 C 0.640625 -0.503906 0.679688 -0.65625 0.679688 -0.890625 L 0.679688 -6.265625 C 0.679688 -6.488281 0.644531 -6.636719 0.570312 -6.707031 C 0.5 -6.773438 0.367188 -6.832031 0.171875 -6.875 L 0.171875 -7.132812 L 2.167969 -7.132812 L 2.167969 -0.890625 C 2.167969 -0.65625 2.207031 -0.503906 2.285156 -0.433594 C 2.359375 -0.359375 2.492188 -0.300781 2.683594 -0.253906 L 2.683594 0 L 0.171875 0 Z "/>
</g>
<g id="glyph-0-6">
<path d="M 0.238281 -2.421875 C 0.238281 -3.234375 0.453125 -3.863281 0.882812 -4.3125 C 1.316406 -4.761719 1.835938 -4.984375 2.441406 -4.984375 C 2.789062 -4.984375 3.117188 -4.894531 3.421875 -4.710938 C 3.726562 -4.527344 3.964844 -4.277344 4.128906 -3.953125 C 4.253906 -3.710938 4.339844 -3.394531 4.386719 -3.003906 C 4.410156 -2.824219 4.421875 -2.683594 4.421875 -2.585938 L 1.730469 -2.585938 C 1.753906 -2.164062 1.824219 -1.796875 1.9375 -1.488281 C 2.144531 -0.910156 2.507812 -0.617188 3.027344 -0.617188 C 3.273438 -0.617188 3.507812 -0.695312 3.726562 -0.851562 C 3.859375 -0.945312 4.027344 -1.097656 4.226562 -1.320312 L 4.46875 -1.171875 C 4.140625 -0.632812 3.765625 -0.261719 3.335938 -0.0507812 C 3.058594 0.0820312 2.738281 0.148438 2.375 0.148438 C 1.855469 0.148438 1.371094 -0.0546875 0.917969 -0.464844 C 0.464844 -0.875 0.238281 -1.527344 0.238281 -2.421875 Z M 3.125 -2.980469 C 3.117188 -3.601562 3.070312 -4.035156 2.980469 -4.28125 C 2.890625 -4.53125 2.710938 -4.652344 2.441406 -4.652344 C 2.167969 -4.652344 1.980469 -4.511719 1.878906 -4.226562 C 1.777344 -3.941406 1.71875 -3.527344 1.707031 -2.980469 Z "/>
</g>
<g id="glyph-0-7">
<path d="M 0.839844 -4.09375 C 0.839844 -4.339844 0.929688 -4.550781 1.101562 -4.722656 C 1.277344 -4.898438 1.488281 -4.984375 1.730469 -4.984375 C 1.980469 -4.984375 2.191406 -4.894531 2.363281 -4.722656 C 2.535156 -4.546875 2.625 -4.335938 2.625 -4.09375 C 2.625 -3.84375 2.535156 -3.632812 2.363281 -3.460938 C 2.191406 -3.289062 1.980469 -3.199219 1.730469 -3.199219 C 1.484375 -3.199219 1.273438 -3.289062 1.101562 -3.460938 C 0.925781 -3.632812 0.839844 -3.84375 0.839844 -4.09375 Z M 0.839844 -0.742188 C 0.839844 -0.988281 0.925781 -1.199219 1.101562 -1.375 C 1.273438 -1.546875 1.484375 -1.632812 1.730469 -1.632812 C 1.980469 -1.632812 2.191406 -1.546875 2.363281 -1.375 C 2.535156 -1.199219 2.625 -0.988281 2.625 -0.742188 C 2.625 -0.496094 2.535156 -0.285156 2.363281 -0.109375 C 2.191406 0.0625 1.980469 0.148438 1.730469 0.148438 C 1.484375 0.148438 1.273438 0.0625 1.101562 -0.109375 C 0.925781 -0.285156 0.839844 -0.496094 0.839844 -0.742188 Z "/>
</g>
<g id="glyph-0-8">
<rect x="0" y="0" width="0" height="0" mask="url(#mask-0)"/>
</g>
<g id="glyph-0-9">
<path d="M 0.230469 -2.417969 C 0.230469 -3.152344 0.457031 -3.765625 0.910156 -4.257812 C 1.363281 -4.75 1.929688 -4.996094 2.613281 -4.996094 C 3.3125 -4.996094 3.882812 -4.742188 4.328125 -4.242188 C 4.773438 -3.742188 4.996094 -3.132812 4.996094 -2.417969 C 4.996094 -1.714844 4.773438 -1.105469 4.335938 -0.601562 C 3.894531 -0.09375 3.320312 0.160156 2.613281 0.160156 C 1.925781 0.160156 1.355469 -0.0859375 0.90625 -0.578125 C 0.457031 -1.074219 0.230469 -1.683594 0.230469 -2.417969 Z M 1.785156 -2.417969 C 1.785156 -1.679688 1.820312 -1.160156 1.898438 -0.867188 C 2.015625 -0.410156 2.253906 -0.179688 2.613281 -0.179688 C 2.953125 -0.179688 3.175781 -0.355469 3.28125 -0.707031 C 3.390625 -1.058594 3.441406 -1.628906 3.441406 -2.417969 C 3.441406 -3.203125 3.386719 -3.773438 3.277344 -4.125 C 3.164062 -4.476562 2.945312 -4.652344 2.617188 -4.652344 C 2.261719 -4.652344 2.023438 -4.425781 1.902344 -3.96875 C 1.824219 -3.664062 1.785156 -3.144531 1.785156 -2.417969 Z "/>
</g>
<g id="glyph-0-10">
<path d="M 0.171875 1.359375 C 0.171875 1.121094 0.238281 0.941406 0.378906 0.828125 C 0.519531 0.714844 0.683594 0.660156 0.875 0.660156 C 1.042969 0.660156 1.183594 0.710938 1.292969 0.808594 C 1.398438 0.910156 1.453125 1.027344 1.453125 1.164062 L 1.425781 1.398438 C 1.425781 1.441406 1.445312 1.484375 1.480469 1.519531 C 1.515625 1.558594 1.554688 1.578125 1.609375 1.578125 C 1.78125 1.578125 1.941406 1.4375 2.085938 1.160156 C 2.179688 0.988281 2.3125 0.652344 2.488281 0.148438 L 1.222656 -2.980469 C 1.132812 -3.199219 1.046875 -3.40625 0.960938 -3.597656 C 0.878906 -3.789062 0.789062 -3.976562 0.695312 -4.160156 C 0.597656 -4.34375 0.523438 -4.460938 0.46875 -4.511719 C 0.414062 -4.558594 0.3125 -4.589844 0.171875 -4.601562 L 0.171875 -4.859375 L 2.808594 -4.859375 L 2.808594 -4.601562 C 2.644531 -4.597656 2.507812 -4.582031 2.40625 -4.546875 C 2.300781 -4.511719 2.246094 -4.4375 2.246094 -4.324219 C 2.246094 -4.300781 2.253906 -4.269531 2.265625 -4.226562 C 2.277344 -4.183594 2.304688 -4.109375 2.34375 -4.003906 L 3.175781 -1.882812 L 3.257812 -1.882812 L 3.933594 -3.78125 C 3.96875 -3.886719 3.996094 -3.976562 4.019531 -4.054688 C 4.039062 -4.132812 4.050781 -4.199219 4.050781 -4.257812 C 4.050781 -4.40625 4.003906 -4.5 3.902344 -4.539062 C 3.804688 -4.578125 3.660156 -4.597656 3.46875 -4.601562 L 3.46875 -4.859375 L 5.066406 -4.859375 L 5.066406 -4.601562 C 4.929688 -4.59375 4.816406 -4.554688 4.730469 -4.492188 C 4.640625 -4.429688 4.550781 -4.273438 4.457031 -4.03125 L 2.882812 0.175781 C 2.59375 0.953125 2.34375 1.480469 2.136719 1.757812 C 1.929688 2.035156 1.601562 2.175781 1.160156 2.175781 C 0.835938 2.175781 0.589844 2.089844 0.421875 1.917969 C 0.253906 1.75 0.171875 1.5625 0.171875 1.359375 Z "/>
</g>
<g id="glyph-0-11">
<path d="M 1.785156 -3.28125 C 1.785156 -2.878906 1.816406 -2.578125 1.886719 -2.382812 C 1.988281 -2.074219 2.1875 -1.917969 2.480469 -1.917969 C 2.746094 -1.917969 2.925781 -2.035156 3.027344 -2.265625 C 3.125 -2.496094 3.175781 -2.835938 3.175781 -3.28125 C 3.175781 -3.757812 3.121094 -4.101562 3.019531 -4.320312 C 2.914062 -4.535156 2.734375 -4.644531 2.480469 -4.644531 C 2.203125 -4.644531 2.015625 -4.527344 1.921875 -4.296875 C 1.828125 -4.0625 1.785156 -3.726562 1.785156 -3.28125 Z M 1.171875 1.148438 C 1.171875 1.367188 1.285156 1.535156 1.519531 1.660156 C 1.75 1.785156 2.085938 1.84375 2.527344 1.84375 C 2.917969 1.84375 3.238281 1.8125 3.496094 1.753906 C 3.972656 1.636719 4.210938 1.421875 4.210938 1.109375 C 4.210938 0.925781 4.144531 0.789062 4.007812 0.699219 C 3.871094 0.609375 3.625 0.5625 3.269531 0.5625 L 1.535156 0.5625 C 1.425781 0.652344 1.347656 0.726562 1.300781 0.789062 C 1.214844 0.902344 1.171875 1.023438 1.171875 1.148438 Z M 0.242188 1.222656 C 0.242188 1.070312 0.304688 0.914062 0.429688 0.753906 C 0.554688 0.59375 0.773438 0.492188 1.082031 0.441406 L 1.082031 0.371094 C 0.875 0.292969 0.726562 0.210938 0.632812 0.128906 C 0.46875 -0.0195312 0.386719 -0.214844 0.386719 -0.464844 C 0.386719 -0.757812 0.515625 -1.011719 0.777344 -1.222656 C 1.035156 -1.429688 1.289062 -1.578125 1.535156 -1.660156 L 1.535156 -1.730469 C 1.179688 -1.875 0.890625 -2.082031 0.671875 -2.351562 C 0.449219 -2.617188 0.339844 -2.941406 0.339844 -3.324219 C 0.339844 -3.804688 0.53125 -4.203125 0.917969 -4.515625 C 1.300781 -4.828125 1.824219 -4.984375 2.480469 -4.984375 C 2.726562 -4.984375 2.953125 -4.960938 3.160156 -4.910156 C 3.367188 -4.863281 3.527344 -4.8125 3.640625 -4.761719 L 5.03125 -4.761719 L 5.03125 -4.199219 L 4.175781 -4.199219 C 4.3125 -4.066406 4.417969 -3.910156 4.492188 -3.730469 C 4.566406 -3.550781 4.601562 -3.359375 4.601562 -3.148438 C 4.601562 -2.488281 4.289062 -2.039062 3.660156 -1.792969 C 3.328125 -1.664062 2.917969 -1.597656 2.425781 -1.597656 C 2.320312 -1.597656 2.25 -1.597656 2.21875 -1.601562 C 2.1875 -1.605469 2.136719 -1.609375 2.070312 -1.609375 C 1.96875 -1.589844 1.859375 -1.535156 1.746094 -1.441406 C 1.628906 -1.347656 1.570312 -1.230469 1.570312 -1.097656 C 1.570312 -0.992188 1.601562 -0.910156 1.660156 -0.851562 C 1.71875 -0.792969 1.796875 -0.757812 1.902344 -0.742188 C 1.953125 -0.734375 2.0625 -0.730469 2.230469 -0.722656 C 2.398438 -0.71875 2.53125 -0.714844 2.625 -0.714844 L 3.308594 -0.707031 C 3.695312 -0.699219 4.023438 -0.640625 4.289062 -0.535156 C 4.792969 -0.328125 5.046875 0.0390625 5.046875 0.570312 C 5.046875 1.257812 4.667969 1.730469 3.910156 1.988281 C 3.511719 2.125 3.011719 2.191406 2.40625 2.191406 C 1.910156 2.191406 1.484375 2.140625 1.128906 2.046875 C 0.539062 1.886719 0.242188 1.609375 0.242188 1.222656 Z "/>
</g>
<g id="glyph-0-12">
<path d="M 0.171875 -0.253906 C 0.363281 -0.277344 0.503906 -0.328125 0.59375 -0.410156 C 0.6875 -0.492188 0.730469 -0.652344 0.730469 -0.890625 L 0.730469 -3.996094 C 0.730469 -4.207031 0.695312 -4.355469 0.621094 -4.4375 C 0.546875 -4.519531 0.398438 -4.574219 0.171875 -4.601562 L 0.171875 -4.859375 L 2.167969 -4.859375 L 2.167969 -4.101562 C 2.335938 -4.355469 2.550781 -4.566406 2.8125 -4.734375 C 3.070312 -4.902344 3.359375 -4.984375 3.675781 -4.984375 C 4.128906 -4.984375 4.480469 -4.867188 4.730469 -4.632812 C 4.980469 -4.398438 5.101562 -3.988281 5.101562 -3.402344 L 5.101562 -0.851562 C 5.101562 -0.613281 5.144531 -0.460938 5.222656 -0.390625 C 5.304688 -0.324219 5.4375 -0.277344 5.628906 -0.253906 L 5.628906 0 L 3.148438 0 L 3.148438 -0.253906 C 3.339844 -0.289062 3.46875 -0.34375 3.535156 -0.40625 C 3.605469 -0.472656 3.640625 -0.621094 3.640625 -0.851562 L 3.640625 -3.40625 C 3.640625 -3.648438 3.613281 -3.828125 3.566406 -3.949219 C 3.484375 -4.164062 3.320312 -4.273438 3.078125 -4.273438 C 2.894531 -4.273438 2.726562 -4.207031 2.574219 -4.074219 C 2.421875 -3.941406 2.304688 -3.808594 2.222656 -3.675781 L 2.222656 -0.851562 C 2.222656 -0.621094 2.253906 -0.472656 2.324219 -0.40625 C 2.394531 -0.339844 2.523438 -0.289062 2.710938 -0.253906 L 2.710938 0 L 0.171875 0 Z "/>
</g>
<g id="glyph-0-13">
<path d="M 0.269531 -1.597656 L 0.5625 -1.597656 C 0.664062 -1.09375 0.855469 -0.734375 1.140625 -0.527344 C 1.421875 -0.320312 1.710938 -0.214844 2.003906 -0.214844 C 2.277344 -0.214844 2.476562 -0.277344 2.601562 -0.398438 C 2.730469 -0.519531 2.792969 -0.683594 2.792969 -0.882812 C 2.792969 -1.070312 2.726562 -1.230469 2.585938 -1.367188 C 2.511719 -1.4375 2.390625 -1.515625 2.222656 -1.597656 L 1.4375 -1.980469 C 1.027344 -2.183594 0.730469 -2.402344 0.550781 -2.640625 C 0.371094 -2.875 0.277344 -3.15625 0.277344 -3.480469 C 0.277344 -3.886719 0.421875 -4.242188 0.707031 -4.539062 C 0.992188 -4.835938 1.390625 -4.984375 1.902344 -4.984375 C 2.125 -4.984375 2.363281 -4.945312 2.613281 -4.875 C 2.863281 -4.800781 3.019531 -4.761719 3.082031 -4.761719 C 3.167969 -4.761719 3.230469 -4.78125 3.265625 -4.816406 C 3.300781 -4.851562 3.332031 -4.902344 3.355469 -4.96875 L 3.585938 -4.96875 L 3.585938 -3.441406 L 3.320312 -3.441406 C 3.21875 -3.800781 3.054688 -4.085938 2.828125 -4.304688 C 2.601562 -4.519531 2.339844 -4.628906 2.035156 -4.628906 C 1.800781 -4.628906 1.628906 -4.5625 1.511719 -4.433594 C 1.398438 -4.300781 1.339844 -4.160156 1.339844 -4.011719 C 1.339844 -3.886719 1.390625 -3.761719 1.496094 -3.640625 C 1.59375 -3.511719 1.785156 -3.382812 2.0625 -3.246094 L 2.640625 -2.96875 C 2.996094 -2.796875 3.257812 -2.628906 3.421875 -2.46875 C 3.695312 -2.195312 3.835938 -1.855469 3.835938 -1.453125 C 3.835938 -1.0625 3.691406 -0.695312 3.410156 -0.359375 C 3.125 -0.0195312 2.699219 0.148438 2.132812 0.148438 C 1.992188 0.148438 1.851562 0.136719 1.707031 0.105469 C 1.566406 0.078125 1.390625 0.0273438 1.179688 -0.046875 L 1 -0.109375 C 0.933594 -0.132812 0.894531 -0.144531 0.878906 -0.148438 C 0.863281 -0.152344 0.84375 -0.15625 0.820312 -0.15625 C 0.761719 -0.15625 0.710938 -0.132812 0.667969 -0.0859375 C 0.625 -0.0390625 0.574219 0.0390625 0.519531 0.148438 L 0.269531 0.148438 Z "/>
</g>
</g>
<image id="source-13" x="0" y="0" width="0" height="0"/>
<mask id="mask-0">
<use xlink:href="#source-13"/>
</mask>
</defs>
<g fill="rgb(97.254902%, 98.039216%, 98.823529%)" fill-opacity="1">
<use xlink:href="#glyph-0-0" x="30" y="27.916992"/>
<use xlink:href="#glyph-0-1" x="37" y="27.916992"/>
<use xlink:href="#glyph-0-2" x="42" y="27.916992"/>
<use xlink:href="#glyph-0-3" x="47" y="27.916992"/>
<use xlink:href="#glyph-0-4" x="56" y="27.916992"/>
<use xlink:href="#glyph-0-5" x="62" y="27.916992"/>
<use xlink:href="#glyph-0-6" x="65" y="27.916992"/>
<use xlink:href="#glyph-0-7" x="70" y="27.916992"/>
<use xlink:href="#glyph-0-8" x="74" y="27.916992"/>
<use xlink:href="#glyph-0-9" x="77" y="27.916992"/>
<use xlink:href="#glyph-0-1" x="82" y="27.916992"/>
<use xlink:href="#glyph-0-10" x="87" y="27.916992"/>
<use xlink:href="#glyph-0-11" x="92" y="27.916992"/>
<use xlink:href="#glyph-0-6" x="97" y="27.916992"/>
<use xlink:href="#glyph-0-12" x="102" y="27.916992"/>
<use xlink:href="#glyph-0-8" x="108" y="27.916992"/>
<use xlink:href="#glyph-0-11" x="111" y="27.916992"/>
<use xlink:href="#glyph-0-2" x="116" y="27.916992"/>
<use xlink:href="#glyph-0-13" x="121" y="27.916992"/>
</g>
</svg>
