<?xml version="1.0" encoding="UTF-8"?>
<svg xmlns="http://www.w3.org/2000/svg" xmlns:xlink="http://www.w3.org/1999/xlink" width="854" height="480" viewBox="0 0 854 480">
<defs>
<g>
<g id="glyph-0-0">
<path d="M 0.144531 -0.269531 C 0.410156 -0.285156 0.597656 -0.324219 0.714844 -0.382812 C 0.921875 -0.488281 1.027344 -0.683594 1.027344 -0.964844 L 1.027344 -6.167969 C 1.027344 -6.441406 0.929688 -6.628906 0.730469 -6.738281 C 0.617188 -6.800781 0.421875 -6.839844 0.144531 -6.867188 L 0.144531 -7.132812 L 3.371094 -7.132812 C 4.671875 -7.132812 5.667969 -6.785156 6.351562 -6.09375 C 6.972656 -5.460938 7.28125 -4.609375 7.28125 -3.546875 C 7.28125 -2.589844 6.96875 -1.78125 6.34375 -1.117188 C 5.640625 -0.371094 4.683594 0 3.480469 0 L 0.144531 0 Z M 2.730469 -0.972656 C 2.742188 -0.757812 2.78125 -0.601562 2.851562 -0.503906 C 2.921875 -0.410156 3.074219 -0.359375 3.304688 -0.359375 C 3.929688 -0.359375 4.441406 -0.582031 4.84375 -1.023438 C 5.246094 -1.464844 5.449219 -2.3125 5.449219 -3.566406 C 5.449219 -4.3125 5.339844 -4.953125 5.125 -5.488281 C 4.773438 -6.351562 4.183594 -6.78125 3.351562 -6.78125 C 3.074219 -6.78125 2.898438 -6.722656 2.8125 -6.609375 C 2.757812 -6.53125 2.730469 -6.386719 2.730469 -6.167969 Z "/>
</g>
<g id="glyph-0-1">
<path d="M 0.632812 -6.472656 C 0.632812 -6.699219 0.714844 -6.894531 0.875 -7.054688 C 1.035156 -7.214844 1.226562 -7.292969 1.453125 -7.292969 C 1.675781 -7.292969 1.867188 -7.214844 2.027344 -7.054688 C 2.1875 -6.894531 2.269531 -6.699219 2.269531 -6.472656 C 2.269531 -6.246094 2.1875 -6.054688 2.027344 -5.894531 C 1.867188 -5.734375 1.675781 -5.652344 1.453125 -5.652344 C 1.226562 -5.652344 1.035156 -5.734375 0.875 -5.894531 C 0.714844 -6.054688 0.632812 -6.246094 0.632812 -6.472656 Z M 0.171875 -0.253906 C 0.355469 -0.285156 0.484375 -0.328125 0.550781 -0.390625 C 0.65625 -0.484375 0.707031 -0.652344 0.707031 -0.890625 L 0.707031 -3.996094 C 0.707031 -4.207031 0.671875 -4.351562 0.597656 -4.429688 C 0.527344 -4.507812 0.382812 -4.566406 0.171875 -4.601562 L 0.171875 -4.859375 L 2.195312 -4.859375 L 2.195312 -0.851562 C 2.195312 -0.621094 2.230469 -0.472656 2.296875 -0.40625 C 2.367188 -0.339844 2.496094 -0.289062 2.683594 -0.253906 L 2.683594 0 L 0.171875 0 Z "/>
</g>
<g id="glyph-0-2">
<path d="M 0.144531 -0.253906 C 0.359375 -0.269531 0.515625 -0.316406 0.609375 -0.398438 C 0.703125 -0.476562 0.753906 -0.640625 0.753906 -0.890625 L 0.753906 -4.324219 L 0.144531 -4.324219 L 0.144531 -4.789062 L 0.753906 -4.789062 L 0.753906 -5.179688 C 0.753906 -5.671875 0.828125 -6.074219 0.984375 -6.390625 C 1.277344 -6.980469 1.816406 -7.277344 2.601562 -7.277344 C 3.023438 -7.277344 3.375 -7.183594 3.667969 -6.992188 C 3.957031 -6.800781 4.101562 -6.550781 4.101562 -6.238281 C 4.101562 -6.042969 4.042969 -5.882812 3.917969 -5.761719 C 3.796875 -5.640625 3.636719 -5.582031 3.433594 -5.582031 C 3.265625 -5.582031 3.121094 -5.636719 3 -5.746094 C 2.878906 -5.855469 2.820312 -5.988281 2.820312 -6.144531 C 2.820312 -6.261719 2.859375 -6.382812 2.933594 -6.511719 C 3.011719 -6.640625 3.050781 -6.71875 3.050781 -6.746094 C 3.050781 -6.832031 3.019531 -6.886719 2.957031 -6.910156 C 2.894531 -6.933594 2.828125 -6.949219 2.757812 -6.949219 C 2.585938 -6.949219 2.453125 -6.898438 2.359375 -6.796875 C 2.265625 -6.699219 2.222656 -6.484375 2.222656 -6.152344 L 2.222656 -4.789062 L 3.140625 -4.789062 L 3.140625 -4.324219 L 2.222656 -4.324219 L 2.222656 -1.082031 C 2.222656 -0.71875 2.273438 -0.496094 2.378906 -0.414062 C 2.484375 -0.332031 2.714844 -0.277344 3.078125 -0.253906 L 3.078125 0 L 0.144531 0 Z "/>
</g>
<g id="glyph-0-3">
<path d="M 0.238281 -2.421875 C 0.238281 -3.234375 0.453125 -3.863281 0.882812 -4.3125 C 1.316406 -4.761719 1.835938 -4.984375 2.441406 -4.984375 C 2.789062 -4.984375 3.117188 -4.894531 3.421875 -4.710938 C 3.726562 -4.527344 3.964844 -4.277344 4.128906 -3.953125 C 4.253906 -3.710938 4.339844 -3.394531 4.386719 -3.003906 C 4.410156 -2.824219 4.421875 -2.683594 4.421875 -2.585938 L 1.730469 -2.585938 C 1.753906 -2.164062 1.824219 -1.796875 1.9375 -1.488281 C 2.144531 -0.910156 2.507812 -0.617188 3.027344 -0.617188 C 3.273438 -0.617188 3.507812 -0.695312 3.726562 -0.851562 C 3.859375 -0.945312 4.027344 -1.097656 4.226562 -1.320312 L 4.46875 -1.171875 C 4.140625 -0.632812 3.765625 -0.261719 3.335938 -0.0507812 C 3.058594 0.0820312 2.738281 0.148438 2.375 0.148438 C 1.855469 0.148438 1.371094 -0.0546875 0.917969 -0.464844 C 0.464844 -0.875 0.238281 -1.527344 0.238281 -2.421875 Z M 3.125 -2.980469 C 3.117188 -3.601562 3.070312 -4.035156 2.980469 -4.28125 C 2.890625 -4.53125 2.710938 -4.652344 2.441406 -4.652344 C 2.167969 -4.652344 1.980469 -4.511719 1.878906 -4.226562 C 1.777344 -3.941406 1.71875 -3.527344 1.707031 -2.980469 Z "/>
</g>
<g id="glyph-0-4">
<path d="M 0.191406 -0.253906 C 0.394531 -0.277344 0.535156 -0.324219 0.613281 -0.398438 C 0.691406 -0.46875 0.734375 -0.609375 0.742188 -0.8125 L 0.753906 -1.125 L 0.753906 -3.996094 C 0.753906 -4.214844 0.714844 -4.363281 0.640625 -4.441406 C 0.5625 -4.519531 0.414062 -4.574219 0.191406 -4.601562 L 0.191406 -4.859375 L 2.195312 -4.859375 L 2.195312 -4.03125 C 2.417969 -4.324219 2.640625 -4.554688 2.859375 -4.726562 C 3.078125 -4.898438 3.335938 -4.984375 3.625 -4.984375 C 3.839844 -4.984375 4.035156 -4.914062 4.207031 -4.773438 C 4.382812 -4.636719 4.46875 -4.433594 4.46875 -4.164062 C 4.46875 -3.957031 4.40625 -3.789062 4.285156 -3.652344 C 4.164062 -3.519531 4.003906 -3.453125 3.808594 -3.453125 C 3.585938 -3.453125 3.390625 -3.558594 3.230469 -3.769531 C 3.066406 -3.976562 2.953125 -4.082031 2.886719 -4.082031 C 2.746094 -4.082031 2.605469 -3.996094 2.460938 -3.820312 C 2.320312 -3.648438 2.246094 -3.398438 2.246094 -3.078125 L 2.246094 -1.082031 C 2.246094 -0.730469 2.296875 -0.511719 2.398438 -0.425781 C 2.5 -0.335938 2.703125 -0.28125 3.003906 -0.253906 L 3.003906 0 L 0.191406 0 Z "/>
</g>
<g id="glyph-0-5">
<path d="M 0.171875 -0.253906 C 0.363281 -0.277344 0.503906 -0.328125 0.59375 -0.410156 C 0.6875 -0.492188 0.730469 -0.652344 0.730469 -0.890625 L 0.730469 -3.996094 C 0.730469 -4.207031 0.695312 -4.355469 0.621094 -4.4375 C 0.546875 -4.519531 0.398438 -4.574219 0.171875 -4.601562 L 0.171875 -4.859375 L 2.167969 -4.859375 L 2.167969 -4.101562 C 2.335938 -4.355469 2.550781 -4.566406 2.8125 -4.734375 C 3.070312 -4.902344 3.359375 -4.984375 3.675781 -4.984375 C 4.128906 -4.984375 4.480469 -4.867188 4.730469 -4.632812 C 4.980469 -4.398438 5.101562 -3.988281 5.101562 -3.402344 L 5.101562 -0.851562 C 5.101562 -0.613281 5.144531 -0.460938 5.222656 -0.390625 C 5.304688 -0.324219 5.4375 -0.277344 5.628906 -0.253906 L 5.628906 0 L 3.148438 0 L 3.148438 -0.253906 C 3.339844 -0.289062 3.46875 -0.34375 3.535156 -0.40625 C 3.605469 -0.472656 3.640625 -0.621094 3.640625 -0.851562 L 3.640625 -3.40625 C 3.640625 -3.648438 3.613281 -3.828125 3.566406 -3.949219 C 3.484375 -4.164062 3.320312 -4.273438 3.078125 -4.273438 C 2.894531 -4.273438 2.726562 -4.207031 2.574219 -4.074219 C 2.421875 -3.941406 2.304688 -3.808594 2.222656 -3.675781 L 2.222656 -0.851562 C 2.222656 -0.621094 2.253906 -0.472656 2.324219 -0.40625 C 2.394531 -0.339844 2.523438 -0.289062 2.710938 -0.253906 L 2.710938 0 L 0.171875 0 Z "/>
</g>
<g id="glyph-0-6">
<path d="M 0.171875 -4.394531 L 0.171875 -4.691406 C 0.261719 -4.777344 0.378906 -4.878906 0.515625 -4.996094 C 0.699219 -5.164062 0.871094 -5.335938 1.03125 -5.515625 C 1.351562 -5.867188 1.640625 -6.242188 1.902344 -6.644531 L 2.167969 -6.644531 L 2.167969 -4.859375 L 3.175781 -4.859375 L 3.175781 -4.394531 L 2.167969 -4.394531 L 2.167969 -1.222656 C 2.167969 -1.074219 2.191406 -0.949219 2.238281 -0.851562 C 2.304688 -0.695312 2.417969 -0.617188 2.578125 -0.617188 C 2.714844 -0.617188 2.828125 -0.667969 2.921875 -0.765625 C 3.015625 -0.863281 3.109375 -1 3.199219 -1.171875 L 3.453125 -1.046875 C 3.328125 -0.757812 3.183594 -0.523438 3.011719 -0.339844 C 2.707031 -0.0195312 2.339844 0.140625 1.902344 0.140625 C 1.65625 0.140625 1.4375 0.09375 1.253906 0 C 0.894531 -0.179688 0.714844 -0.503906 0.714844 -0.972656 L 0.714844 -4.394531 Z "/>
</g>
<g id="glyph-0-7">
<rect x="0" y="0" width="0" height="0" mask="url(#mask-0)"/>
</g>
<g id="glyph-0-8">
<path d="M 0.171875 -0.253906 C 0.355469 -0.296875 0.488281 -0.355469 0.5625 -0.429688 C 0.640625 -0.503906 0.679688 -0.65625 0.679688 -0.890625 L 0.679688 -6.265625 C 0.679688 -6.488281 0.644531 -6.636719 0.570312 -6.707031 C 0.5 -6.773438 0.367188 -6.832031 0.171875 -6.875 L 0.171875 -7.132812 L 2.167969 -7.132812 L 2.167969 -0.890625 C 2.167969 -0.65625 2.207031 -0.503906 2.285156 -0.433594 C 2.359375 -0.359375 2.492188 -0.300781 2.683594 -0.253906 L 2.683594 0 L 0.171875 0 Z "/>
</g>
<g id="glyph-0-9">
<path d="M 0.171875 -0.253906 C 0.363281 -0.277344 0.496094 -0.316406 0.566406 -0.375 C 0.683594 -0.46875 0.742188 -0.640625 0.742188 -0.890625 L 0.742188 -3.996094 C 0.742188 -4.214844 0.703125 -4.363281 0.625 -4.441406 C 0.546875 -4.519531 0.394531 -4.574219 0.171875 -4.601562 L 0.171875 -4.859375 L 2.167969 -4.859375 L 2.167969 -4.101562 C 2.34375 -4.332031 2.515625 -4.511719 2.679688 -4.640625 C 2.984375 -4.871094 3.324219 -4.984375 3.699219 -4.984375 C 4.121094 -4.984375 4.453125 -4.882812 4.683594 -4.683594 C 4.816406 -4.570312 4.9375 -4.386719 5.054688 -4.128906 L 5.128906 -4.128906 C 5.328125 -4.371094 5.519531 -4.554688 5.699219 -4.679688 C 5.988281 -4.882812 6.304688 -4.984375 6.644531 -4.984375 C 7.015625 -4.984375 7.34375 -4.867188 7.625 -4.628906 C 7.910156 -4.390625 8.050781 -4.015625 8.050781 -3.503906 L 8.050781 -0.851562 C 8.050781 -0.605469 8.089844 -0.449219 8.167969 -0.382812 C 8.246094 -0.316406 8.386719 -0.273438 8.585938 -0.253906 L 8.585938 0 L 6.082031 0 L 6.082031 -0.253906 C 6.273438 -0.28125 6.410156 -0.328125 6.484375 -0.394531 C 6.558594 -0.460938 6.597656 -0.613281 6.597656 -0.851562 L 6.597656 -3.40625 C 6.597656 -3.679688 6.558594 -3.894531 6.476562 -4.046875 C 6.394531 -4.199219 6.242188 -4.273438 6.015625 -4.273438 C 5.832031 -4.273438 5.640625 -4.1875 5.441406 -4.023438 C 5.238281 -3.855469 5.136719 -3.738281 5.136719 -3.675781 L 5.136719 -0.851562 C 5.136719 -0.621094 5.171875 -0.472656 5.242188 -0.40625 C 5.3125 -0.339844 5.4375 -0.289062 5.628906 -0.253906 L 5.628906 0 L 3.160156 0 L 3.160156 -0.253906 C 3.34375 -0.277344 3.476562 -0.320312 3.554688 -0.390625 C 3.636719 -0.457031 3.675781 -0.609375 3.675781 -0.851562 L 3.675781 -3.40625 C 3.675781 -3.675781 3.636719 -3.886719 3.5625 -4.039062 C 3.484375 -4.195312 3.328125 -4.273438 3.09375 -4.273438 C 2.875 -4.273438 2.675781 -4.183594 2.488281 -4.007812 C 2.304688 -3.832031 2.210938 -3.71875 2.210938 -3.675781 L 2.210938 -0.851562 C 2.210938 -0.621094 2.242188 -0.472656 2.308594 -0.40625 C 2.375 -0.339844 2.503906 -0.289062 2.695312 -0.253906 L 2.695312 0 L 0.171875 0 Z "/>
</g>
<g id="glyph-0-10">
<path d="M 0.269531 -1.597656 L 0.5625 -1.597656 C 0.664062 -1.09375 0.855469 -0.734375 1.140625 -0.527344 C 1.421875 -0.320312 1.710938 -0.214844 2.003906 -0.214844 C 2.277344 -0.214844 2.476562 -0.277344 2.601562 -0.398438 C 2.730469 -0.519531 2.792969 -0.683594 2.792969 -0.882812 C 2.792969 -1.070312 2.726562 -1.230469 2.585938 -1.367188 C 2.511719 -1.4375 2.390625 -1.515625 2.222656 -1.597656 L 1.4375 -1.980469 C 1.027344 -2.183594 0.730469 -2.402344 0.550781 -2.640625 C 0.371094 -2.875 0.277344 -3.15625 0.277344 -3.480469 C 0.277344 -3.886719 0.421875 -4.242188 0.707031 -4.539062 C 0.992188 -4.835938 1.390625 -4.984375 1.902344 -4.984375 C 2.125 -4.984375 2.363281 -4.945312 2.613281 -4.875 C 2.863281 -4.800781 3.019531 -4.761719 3.082031 -4.761719 C 3.167969 -4.761719 3.230469 -4.78125 3.265625 -4.816406 C 3.300781 -4.851562 3.332031 -4.902344 3.355469 -4.96875 L 3.585938 -4.96875 L 3.585938 -3.441406 L 3.320312 -3.441406 C 3.21875 -3.800781 3.054688 -4.085938 2.828125 -4.304688 C 2.601562 -4.519531 2.339844 -4.628906 2.035156 -4.628906 C 1.800781 -4.628906 1.628906 -4.5625 1.511719 -4.433594 C 1.398438 -4.300781 1.339844 -4.160156 1.339844 -4.011719 C 1.339844 -3.886719 1.390625 -3.761719 1.496094 -3.640625 C 1.59375 -3.511719 1.785156 -3.382812 2.0625 -3.246094 L 2.640625 -2.96875 C 2.996094 -2.796875 3.257812 -2.628906 3.421875 -2.46875 C 3.695312 -2.195312 3.835938 -1.855469 3.835938 -1.453125 C 3.835938 -1.0625 3.691406 -0.695312 3.410156 -0.359375 C 3.125 -0.0195312 2.699219 0.148438 2.132812 0.148438 C 1.992188 0.148438 1.851562 0.136719 1.707031 0.105469 C 1.566406 0.078125 1.390625 0.0273438 1.179688 -0.046875 L 1 -0.109375 C 0.933594 -0.132812 0.894531 -0.144531 0.878906 -0.148438 C 0.863281 -0.152344 0.84375 -0.15625 0.820312 -0.15625 C 0.761719 -0.15625 0.710938 -0.132812 0.667969 -0.0859375 C 0.625 -0.0390625 0.574219 0.0390625 0.519531 0.148438 L 0.269531 0.148438 Z "/>
</g>
</g>
<image id="source-13" x="0" y="0" width="0" height="0"/>
<mask id="mask-0">
<use xlink:href="#source-13"/>
</mask>
</defs>
<g fill="rgb(97.254902%, 98.039216%, 98.823529%)" fill-opacity="1">
<use xlink:href="#glyph-0-0" x="30" y="27.916992"/>
<use xlink:href="#glyph-0-1" x="38" y="27.916992"/>
<use xlink:href="#glyph-0-2" x="41" y="27.916992"/>
<use xlink:href="#glyph-0-2" x="45" y="27.916992"/>
<use xlink:href="#glyph-0-3" x="49" y="27.916992"/>
<use xlink:href="#glyph-0-4" x="54" y="27.916992"/>
<use xlink:href="#glyph-0-3" x="59" y="27.916992"/>
<use xlink:href="#glyph-0-5" x="64" y="27.916992"/>
<use xlink:href="#glyph-0-6" x="70" y="27.916992"/>
<use xlink:href="#glyph-0-7" x="74" y="27.916992"/>
<use xlink:href="#glyph-0-3" x="77" y="27.916992"/>
<use xlink:href="#glyph-0-8" x="82" y="27.916992"/>
<use xlink:href="#glyph-0-3" x="85" y="27.916992"/>
<use xlink:href="#glyph-0-9" x="90" y="27.916992"/>
<use xlink:href="#glyph-0-3" x="99" y="27.916992"/>
<use xlink:href="#glyph-0-5" x="104" y="27.916992"/>
<use xlink:href="#glyph-0-6" x="110" y="27.916992"/>
<use xlink:href="#glyph-0-10" x="114" y="27.916992"/>
</g>
</svg>
