<?xml version="1.0" encoding="UTF-8"?>
<svg xmlns="http://www.w3.org/2000/svg" xmlns:xlink="http://www.w3.org/1999/xlink" width="854" height="480" viewBox="0 0 854 480">
<defs>
<g>
<g id="glyph-0-0">
<path d="M 0.128906 -0.238281 C 0.488281 -0.242188 0.722656 -0.308594 0.828125 -0.429688 C 0.9375 -0.554688 0.992188 -0.742188 0.992188 -0.992188 L 0.992188 -5.472656 C 0.992188 -5.730469 0.929688 -5.902344 0.808594 -5.984375 C 0.683594 -6.066406 0.464844 -6.117188 0.152344 -6.140625 L 0.152344 -6.382812 L 2.53125 -6.382812 L 4.390625 -2.011719 L 4.46875 -2.011719 L 6.316406 -6.382812 L 8.699219 -6.382812 L 8.699219 -6.140625 C 8.378906 -6.117188 8.160156 -6.058594 8.042969 -5.964844 C 7.925781 -5.871094 7.867188 -5.640625 7.867188 -5.277344 L 7.867188 -1.101562 C 7.867188 -0.753906 7.925781 -0.527344 8.042969 -0.417969 C 8.160156 -0.3125 8.378906 -0.253906 8.699219 -0.238281 L 8.699219 0 L 5.5625 0 L 5.5625 -0.238281 C 5.839844 -0.25 6.050781 -0.296875 6.191406 -0.378906 C 6.335938 -0.464844 6.40625 -0.648438 6.40625 -0.9375 L 6.40625 -5.550781 L 6.335938 -5.550781 L 4.019531 0 L 3.769531 0 L 1.429688 -5.441406 L 1.386719 -5.441406 L 1.386719 -1.167969 C 1.386719 -0.855469 1.445312 -0.625 1.5625 -0.480469 C 1.679688 -0.335938 1.9375 -0.253906 2.339844 -0.238281 L 2.339844 0 L 0.128906 0 Z "/>
</g>
<g id="glyph-0-1">
<path d="M 0.207031 -2.164062 C 0.207031 -2.820312 0.410156 -3.371094 0.8125 -3.808594 C 1.21875 -4.25 1.726562 -4.46875 2.339844 -4.46875 C 2.960938 -4.46875 3.472656 -4.242188 3.871094 -3.796875 C 4.269531 -3.347656 4.46875 -2.800781 4.46875 -2.164062 C 4.46875 -1.53125 4.273438 -0.992188 3.878906 -0.539062 C 3.484375 -0.0859375 2.972656 0.144531 2.339844 0.144531 C 1.722656 0.144531 1.214844 -0.078125 0.8125 -0.519531 C 0.410156 -0.960938 0.207031 -1.507812 0.207031 -2.164062 Z M 1.59375 -2.164062 C 1.59375 -1.503906 1.628906 -1.039062 1.695312 -0.773438 C 1.804688 -0.367188 2.019531 -0.160156 2.339844 -0.160156 C 2.644531 -0.160156 2.84375 -0.316406 2.9375 -0.632812 C 3.03125 -0.945312 3.082031 -1.457031 3.082031 -2.164062 C 3.082031 -2.867188 3.03125 -3.375 2.929688 -3.691406 C 2.832031 -4.007812 2.632812 -4.164062 2.34375 -4.164062 C 2.023438 -4.164062 1.808594 -3.960938 1.703125 -3.550781 C 1.632812 -3.277344 1.59375 -2.816406 1.59375 -2.164062 Z "/>
</g>
<g id="glyph-0-2">
<path d="M 0.152344 -0.226562 C 0.316406 -0.265625 0.4375 -0.320312 0.503906 -0.386719 C 0.574219 -0.453125 0.609375 -0.589844 0.609375 -0.796875 L 0.609375 -5.609375 C 0.609375 -5.808594 0.578125 -5.9375 0.511719 -6 C 0.445312 -6.0625 0.328125 -6.113281 0.152344 -6.152344 L 0.152344 -6.382812 L 1.941406 -6.382812 L 1.941406 -0.796875 C 1.941406 -0.589844 1.976562 -0.453125 2.042969 -0.386719 C 2.109375 -0.324219 2.230469 -0.269531 2.402344 -0.226562 L 2.402344 0 L 0.152344 0 Z "/>
</g>
<g id="glyph-0-3">
<path d="M 0.210938 -2.167969 C 0.210938 -2.894531 0.40625 -3.457031 0.789062 -3.859375 C 1.175781 -4.257812 1.640625 -4.460938 2.1875 -4.460938 C 2.496094 -4.460938 2.789062 -4.378906 3.0625 -4.214844 C 3.335938 -4.050781 3.546875 -3.824219 3.695312 -3.535156 C 3.804688 -3.316406 3.882812 -3.035156 3.925781 -2.6875 C 3.945312 -2.523438 3.957031 -2.402344 3.957031 -2.316406 L 1.550781 -2.316406 C 1.570312 -1.9375 1.632812 -1.609375 1.734375 -1.332031 C 1.917969 -0.8125 2.242188 -0.554688 2.707031 -0.554688 C 2.929688 -0.554688 3.136719 -0.621094 3.335938 -0.761719 C 3.453125 -0.84375 3.601562 -0.984375 3.78125 -1.179688 L 4 -1.046875 C 3.707031 -0.566406 3.367188 -0.234375 2.984375 -0.046875 C 2.734375 0.0742188 2.449219 0.132812 2.125 0.132812 C 1.660156 0.132812 1.226562 -0.0507812 0.820312 -0.414062 C 0.414062 -0.78125 0.210938 -1.363281 0.210938 -2.167969 Z M 2.792969 -2.664062 C 2.789062 -3.222656 2.746094 -3.609375 2.664062 -3.832031 C 2.585938 -4.054688 2.425781 -4.164062 2.1875 -4.164062 C 1.941406 -4.164062 1.773438 -4.035156 1.679688 -3.78125 C 1.589844 -3.527344 1.539062 -3.152344 1.527344 -2.664062 Z "/>
</g>
<g id="glyph-0-4">
<path d="M 2.433594 -4.46875 C 2.832031 -4.46875 3.175781 -4.371094 3.464844 -4.179688 C 3.753906 -3.984375 3.902344 -3.734375 3.902344 -3.429688 C 3.902344 -3.269531 3.84375 -3.125 3.726562 -3.007812 C 3.613281 -2.886719 3.464844 -2.828125 3.289062 -2.828125 C 3.167969 -2.828125 3.0625 -2.855469 2.972656 -2.910156 C 2.804688 -3.007812 2.722656 -3.1875 2.722656 -3.445312 C 2.722656 -3.472656 2.722656 -3.511719 2.726562 -3.566406 C 2.730469 -3.621094 2.730469 -3.679688 2.730469 -3.738281 C 2.730469 -3.90625 2.691406 -4.019531 2.613281 -4.082031 C 2.535156 -4.144531 2.445312 -4.171875 2.34375 -4.171875 C 2.050781 -4.171875 1.84375 -4.011719 1.71875 -3.691406 C 1.597656 -3.371094 1.535156 -3.003906 1.535156 -2.585938 C 1.535156 -1.996094 1.652344 -1.5 1.886719 -1.101562 C 2.121094 -0.703125 2.433594 -0.503906 2.832031 -0.503906 C 3.082031 -0.503906 3.292969 -0.558594 3.46875 -0.667969 C 3.574219 -0.734375 3.703125 -0.851562 3.855469 -1.023438 L 4.03125 -0.863281 C 3.722656 -0.433594 3.363281 -0.140625 2.953125 0.0195312 C 2.734375 0.101562 2.5 0.144531 2.253906 0.144531 C 1.648438 0.144531 1.15625 -0.0742188 0.769531 -0.507812 C 0.386719 -0.941406 0.195312 -1.46875 0.195312 -2.09375 C 0.195312 -2.75 0.398438 -3.3125 0.804688 -3.773438 C 1.210938 -4.238281 1.753906 -4.46875 2.433594 -4.46875 Z "/>
</g>
<g id="glyph-0-5">
<path d="M 1.933594 -4.347656 L 1.933594 -1.144531 C 1.933594 -0.953125 1.957031 -0.8125 2 -0.722656 C 2.082031 -0.566406 2.238281 -0.488281 2.476562 -0.488281 C 2.628906 -0.488281 2.773438 -0.535156 2.917969 -0.632812 C 3 -0.683594 3.105469 -0.773438 3.234375 -0.894531 L 3.234375 -3.574219 C 3.234375 -3.769531 3.195312 -3.910156 3.113281 -3.988281 C 3.035156 -4.066406 2.878906 -4.109375 2.640625 -4.117188 L 2.640625 -4.347656 L 4.523438 -4.347656 L 4.523438 -0.949219 C 4.523438 -0.753906 4.5625 -0.617188 4.632812 -0.542969 C 4.707031 -0.46875 4.851562 -0.417969 5.066406 -0.402344 L 5.066406 -0.183594 C 4.484375 -0.128906 4.117188 -0.0898438 3.964844 -0.0625 C 3.8125 -0.0351562 3.566406 0.0273438 3.234375 0.132812 L 3.234375 -0.488281 C 3.007812 -0.296875 2.820312 -0.160156 2.675781 -0.078125 C 2.417969 0.0625 2.148438 0.132812 1.867188 0.132812 C 1.5625 0.132812 1.28125 0.0351562 1.015625 -0.15625 C 0.753906 -0.351562 0.621094 -0.695312 0.621094 -1.191406 L 0.621094 -3.574219 C 0.621094 -3.773438 0.589844 -3.90625 0.527344 -3.964844 C 0.460938 -4.027344 0.335938 -4.078125 0.152344 -4.117188 L 0.152344 -4.347656 Z "/>
</g>
</g>
</defs>
<g fill="rgb(46.27451%, 86.666667%, 75.294118%)" fill-opacity="1">
<use xlink:href="#glyph-0-0" x="30" y="27.083008"/>
<use xlink:href="#glyph-0-1" x="39" y="27.083008"/>
<use xlink:href="#glyph-0-2" x="44" y="27.083008"/>
<use xlink:href="#glyph-0-3" x="47" y="27.083008"/>
<use xlink:href="#glyph-0-4" x="51" y="27.083008"/>
<use xlink:href="#glyph-0-5" x="55" y="27.083008"/>
<use xlink:href="#glyph-0-2" x="60" y="27.083008"/>
<use xlink:href="#glyph-0-3" x="63" y="27.083008"/>
</g>
</svg>
