<?xml version="1.0" encoding="UTF-8"?>
<svg xmlns="http://www.w3.org/2000/svg" xmlns:xlink="http://www.w3.org/1999/xlink" width="854" height="480" viewBox="0 0 854 480">
<defs>
<g>
<g id="glyph-0-0">
<path d="M 4.214844 -2.425781 L 3.121094 -5.027344 L 2.042969 -2.425781 Z M 0.136719 0 L 0.136719 -0.171875 C 0.378906 -0.199219 0.5625 -0.289062 0.683594 -0.449219 C 0.804688 -0.605469 1.015625 -1.03125 1.308594 -1.726562 L 3.277344 -6.359375 L 3.464844 -6.359375 L 5.816406 -1.003906 C 5.972656 -0.648438 6.097656 -0.429688 6.191406 -0.34375 C 6.285156 -0.257812 6.441406 -0.203125 6.664062 -0.171875 L 6.664062 0 L 4.261719 0 L 4.261719 -0.171875 C 4.539062 -0.195312 4.714844 -0.226562 4.796875 -0.261719 C 4.875 -0.296875 4.914062 -0.382812 4.914062 -0.519531 C 4.914062 -0.566406 4.902344 -0.648438 4.871094 -0.765625 C 4.839844 -0.882812 4.796875 -1.003906 4.742188 -1.132812 L 4.347656 -2.042969 L 1.875 -2.042969 C 1.628906 -1.425781 1.484375 -1.046875 1.4375 -0.910156 C 1.390625 -0.773438 1.363281 -0.664062 1.363281 -0.585938 C 1.363281 -0.425781 1.429688 -0.316406 1.558594 -0.253906 C 1.636719 -0.21875 1.789062 -0.1875 2.011719 -0.171875 L 2.011719 0 Z "/>
</g>
<g id="glyph-0-1">
<path d="M 2.402344 -4.25 L 2.402344 -3.917969 L 1.460938 -3.917969 L 1.453125 -1.261719 C 1.453125 -1.027344 1.472656 -0.851562 1.511719 -0.734375 C 1.585938 -0.519531 1.730469 -0.414062 1.945312 -0.414062 C 2.054688 -0.414062 2.152344 -0.441406 2.234375 -0.492188 C 2.316406 -0.546875 2.410156 -0.628906 2.511719 -0.742188 L 2.632812 -0.640625 L 2.53125 -0.503906 C 2.371094 -0.289062 2.203125 -0.136719 2.023438 -0.046875 C 1.847656 0.0429688 1.675781 0.0859375 1.507812 0.0859375 C 1.144531 0.0859375 0.898438 -0.0742188 0.769531 -0.398438 C 0.699219 -0.574219 0.664062 -0.816406 0.664062 -1.125 L 0.664062 -3.917969 L 0.160156 -3.917969 C 0.144531 -3.929688 0.132812 -3.9375 0.125 -3.949219 C 0.117188 -3.957031 0.117188 -3.96875 0.117188 -3.984375 C 0.117188 -4.015625 0.121094 -4.039062 0.136719 -4.054688 C 0.148438 -4.074219 0.195312 -4.113281 0.265625 -4.171875 C 0.480469 -4.347656 0.632812 -4.492188 0.726562 -4.601562 C 0.820312 -4.710938 1.039062 -4.996094 1.386719 -5.464844 C 1.425781 -5.464844 1.453125 -5.460938 1.460938 -5.457031 C 1.46875 -5.449219 1.472656 -5.425781 1.472656 -5.386719 L 1.472656 -4.25 Z "/>
</g>
<g id="glyph-0-2">
<path d="M 0.238281 -2.140625 C 0.238281 -2.75 0.433594 -3.269531 0.824219 -3.691406 C 1.210938 -4.113281 1.710938 -4.324219 2.324219 -4.324219 C 2.933594 -4.324219 3.4375 -4.125 3.835938 -3.726562 C 4.234375 -3.328125 4.4375 -2.792969 4.4375 -2.128906 C 4.4375 -1.519531 4.242188 -0.988281 3.855469 -0.535156 C 3.46875 -0.0820312 2.964844 0.144531 2.351562 0.144531 C 1.761719 0.144531 1.261719 -0.0742188 0.851562 -0.507812 C 0.445312 -0.941406 0.238281 -1.484375 0.238281 -2.140625 Z M 2.195312 -4.050781 C 1.953125 -4.050781 1.742188 -3.96875 1.5625 -3.808594 C 1.253906 -3.527344 1.101562 -3.046875 1.101562 -2.359375 C 1.101562 -1.8125 1.226562 -1.304688 1.472656 -0.828125 C 1.71875 -0.355469 2.0625 -0.121094 2.503906 -0.121094 C 2.847656 -0.121094 3.113281 -0.277344 3.300781 -0.59375 C 3.484375 -0.910156 3.578125 -1.328125 3.578125 -1.839844 C 3.578125 -2.371094 3.460938 -2.871094 3.222656 -3.34375 C 2.988281 -3.8125 2.644531 -4.050781 2.195312 -4.050781 Z "/>
</g>
<g id="glyph-0-3">
<path d="M 0.152344 -0.121094 C 0.390625 -0.140625 0.550781 -0.179688 0.632812 -0.238281 C 0.753906 -0.328125 0.816406 -0.507812 0.816406 -0.773438 L 0.816406 -3.160156 C 0.816406 -3.386719 0.785156 -3.535156 0.726562 -3.605469 C 0.667969 -3.675781 0.566406 -3.710938 0.429688 -3.710938 C 0.363281 -3.710938 0.316406 -3.710938 0.285156 -3.703125 C 0.25 -3.695312 0.214844 -3.6875 0.171875 -3.671875 L 0.171875 -3.832031 L 0.503906 -3.941406 C 0.621094 -3.980469 0.820312 -4.054688 1.09375 -4.160156 C 1.367188 -4.265625 1.511719 -4.316406 1.527344 -4.316406 C 1.542969 -4.316406 1.550781 -4.308594 1.554688 -4.292969 C 1.558594 -4.277344 1.558594 -4.25 1.558594 -4.207031 L 1.558594 -3.582031 C 1.863281 -3.859375 2.125 -4.050781 2.347656 -4.15625 C 2.570312 -4.261719 2.796875 -4.316406 3.03125 -4.316406 C 3.347656 -4.316406 3.597656 -4.207031 3.785156 -3.992188 C 3.882812 -3.875 3.964844 -3.71875 4.03125 -3.519531 C 4.257812 -3.75 4.457031 -3.917969 4.625 -4.03125 C 4.917969 -4.222656 5.214844 -4.316406 5.519531 -4.316406 C 6.015625 -4.316406 6.34375 -4.113281 6.511719 -3.710938 C 6.605469 -3.484375 6.65625 -3.125 6.65625 -2.632812 L 6.65625 -0.71875 C 6.65625 -0.5 6.703125 -0.351562 6.800781 -0.273438 C 6.898438 -0.195312 7.070312 -0.144531 7.324219 -0.121094 L 7.324219 0 L 5.242188 0 L 5.242188 -0.128906 C 5.511719 -0.152344 5.6875 -0.207031 5.769531 -0.289062 C 5.855469 -0.371094 5.898438 -0.542969 5.898438 -0.796875 L 5.898438 -2.785156 C 5.898438 -3.082031 5.867188 -3.304688 5.800781 -3.445312 C 5.6875 -3.695312 5.464844 -3.824219 5.132812 -3.824219 C 4.933594 -3.824219 4.734375 -3.757812 4.539062 -3.625 C 4.425781 -3.546875 4.285156 -3.425781 4.117188 -3.253906 L 4.117188 -0.894531 C 4.117188 -0.644531 4.160156 -0.457031 4.25 -0.328125 C 4.335938 -0.199219 4.523438 -0.128906 4.804688 -0.121094 L 4.804688 0 L 2.6875 0 L 2.6875 -0.121094 C 2.980469 -0.15625 3.167969 -0.226562 3.246094 -0.332031 C 3.328125 -0.4375 3.367188 -0.691406 3.367188 -1.101562 L 3.367188 -2.394531 C 3.367188 -2.867188 3.335938 -3.191406 3.273438 -3.371094 C 3.171875 -3.671875 2.957031 -3.824219 2.628906 -3.824219 C 2.441406 -3.824219 2.257812 -3.769531 2.074219 -3.667969 C 1.894531 -3.566406 1.734375 -3.429688 1.59375 -3.265625 L 1.59375 -0.742188 C 1.59375 -0.507812 1.636719 -0.347656 1.71875 -0.257812 C 1.800781 -0.167969 1.976562 -0.121094 2.25 -0.121094 L 2.25 0 L 0.152344 0 Z "/>
</g>
</g>
</defs>
<g fill="rgb(100%, 100%, 100%)" fill-opacity="1">
<use xlink:href="#glyph-0-0" x="30" y="27.083008"/>
<use xlink:href="#glyph-0-1" x="37" y="27.083008"/>
<use xlink:href="#glyph-0-2" x="40" y="27.083008"/>
<use xlink:href="#glyph-0-3" x="45" y="27.083008"/>
</g>
</svg>
